{
  "accessors": [
    {
      "bufferView": 2,
      "componentType": 5126,
      "count": 1169,
      "max": [
        39.18171691894531,
        59.86908721923828,
        36.109256744384766
      ],
      "min": [
        -39.18171691894531,
        -9.678637504577637,
        -35.43740463256836
      ],
      "type": "VEC3"
    },
    {
      "bufferView": 2,
      "byteOffset": 14028,
      "componentType": 5126,
      "count": 1169,
      "max": [
        0.9969885945320129,
        0.9998348951339722,
        0.9999958276748657
      ],
      "min": [
        -0.9969885945320129,
        -0.9992777705192566,
        -0.999859631061554
      ],
      "type": "VEC3"
    },
    {
      "bufferView": 1,
      "componentType": 5126,
      "count": 1169,
      "max": [
        0.9862444400787354,
        0.8936173915863037
      ],
      "min": [
        0.0077130794525146484,
        0.007672697305679321
      ],
      "type": "VEC2"
    },
    {
      "bufferView": 1,
      "byteOffset": 9352,
      "componentType": 5126,
      "count": 1169,
      "max": [
        0.9862444400787354,
        0.8936173915863037
      ],
      "min": [
        0.0077130794525146484,
        0.007672697305679321
      ],
      "type": "VEC2"
    },
    {
      "bufferView": 1,
      "byteOffset": 18704,
      "componentType": 5126,
      "count": 1169,
      "max": [
        0.9862444400787354,
        0.8936173915863037
      ],
      "min": [
        0.0077130794525146484,
        0.007672697305679321
      ],
      "type": "VEC2"
    },
    {
      "bufferView": 1,
      "byteOffset": 28056,
      "componentType": 5126,
      "count": 1169,
      "max": [
        0.9862444400787354,
        0.8936173915863037
      ],
      "min": [
        0.0077130794525146484,
        0.007672697305679321
      ],
      "type": "VEC2"
    },
    {
      "bufferView": 1,
      "byteOffset": 37408,
      "componentType": 5126,
      "count": 1169,
      "max": [
        0.9862444400787354,
        0.8936173915863037
      ],
      "min": [
        0.0077130794525146484,
        0.007672697305679321
      ],
      "type": "VEC2"
    },
    {
      "bufferView": 1,
      "byteOffset": 46760,
      "componentType": 5126,
      "count": 1169,
      "max": [
        0.9862444400787354,
        0.8936173915863037
      ],
      "min": [
        0.0077130794525146484,
        0.007672697305679321
      ],
      "type": "VEC2"
    },
    {
      "bufferView": 1,
      "byteOffset": 56112,
      "componentType": 5126,
      "count": 1169,
      "max": [
        0.9862444400787354,
        0.8936173915863037
      ],
      "min": [
        0.0077130794525146484,
        0.007672697305679321
      ],
      "type": "VEC2"
    },
    {
      "bufferView": 1,
      "byteOffset": 65464,
      "componentType": 5126,
      "count": 1169,
      "max": [
        0.9862444400787354,
        0.8936173915863037
      ],
      "min": [
        0.0077130794525146484,
        0.007672697305679321
      ],
      "type": "VEC2"
    },
    {
      "bufferView": 1,
      "byteOffset": 74816,
      "componentType": 5126,
      "count": 1169,
      "max": [
        0.9862444400787354,
        0.8936173915863037
      ],
      "min": [
        0.0077130794525146484,
        0.007672697305679321
      ],
      "type": "VEC2"
    },
    {
      "bufferView": 1,
      "byteOffset": 84168,
      "componentType": 5126,
      "count": 1169,
      "max": [
        0.9862444400787354,
        0.8936173915863037
      ],
      "min": [
        0.0077130794525146484,
        0.007672697305679321
      ],
      "type": "VEC2"
    },
    {
      "bufferView": 0,
      "componentType": 5125,
      "count": 5952,
      "type": "SCALAR"
    }
  ],
  "asset": {
    "extras": {
      "author": "BaluCG (https://sketchfab.com/BaluCG)",
      "license": "SKETCHFAB Standard (https://sketchfab.com/licenses)",
      "source": "https://sketchfab.com/3d-models/prop124-bear-head-a909dd7bbc654f6287348214f193634a",
      "title": "Prop124 Bear Head"
    },
    "generator": "Sketchfab-13.78.0",
    "version": "2.0"
  },
  "bufferViews": [
    {
      "buffer": 0,
      "byteLength": 23808,
      "name": "floatBufferViews",
      "target": 34963
    },
    {
      "buffer": 0,
      "byteLength": 93520,
      "byteOffset": 23808,
      "byteStride": 8,
      "name": "floatBufferViews",
      "target": 34962
    },
    {
      "buffer": 0,
      "byteLength": 28056,
      "byteOffset": 117328,
      "byteStride": 12,
      "name": "floatBufferViews",
      "target": 34962
    }
  ],
  "buffers": [
    {
      "byteLength": 145384,
      "uri": "scene.bin"
    }
  ],
  "images": [
    {
      "uri": "textures/BearHead_baseColor.png"
    },
    {
      "uri": "textures/BearHead_metallicRoughness.png"
    }
  ],
  "materials": [
    {
      "doubleSided": true,
      "name": "BearHead",
      "pbrMetallicRoughness": {
        "baseColorTexture": {
          "index": 0
        },
        "metallicFactor": 0.0,
        "metallicRoughnessTexture": {
          "index": 1
        }
      }
    }
  ],
  "meshes": [
    {
      "name": "BearHead_BearHead_0",
      "primitives": [
        {
          "attributes": {
            "NORMAL": 1,
            "POSITION": 0,
            "TEXCOORD_0": 2,
            "TEXCOORD_1": 3,
            "TEXCOORD_2": 4,
            "TEXCOORD_3": 5,
            "TEXCOORD_4": 6,
            "TEXCOORD_5": 7,
            "TEXCOORD_6": 8,
            "TEXCOORD_7": 9,
            "TEXCOORD_8": 10,
            "TEXCOORD_9": 11
          },
          "indices": 12,
          "material": 0,
          "mode": 4
        }
      ]
    }
  ],
  "nodes": [
    {
      "children": [
        1
      ],
      "matrix": [
        1.0,
        0.0,
        0.0,
        0.0,
        0.0,
        2.220446049250313e-16,
        -1.0,
        0.0,
        0.0,
        1.0,
        2.220446049250313e-16,
        0.0,
        0.0,
        0.0,
        0.0,
        1.0
      ],
      "name": "Sketchfab_model"
    },
    {
      "children": [
        2
      ],
      "matrix": [
        0.009999999776482582,
        0.0,
        0.0,
        0.0,
        0.0,
        0.0,
        0.009999999776482582,
        0.0,
        0.0,
        -0.009999999776482582,
        0.0,
        0.0,
        0.0,
        0.0,
        0.0,
        1.0
      ],
      "name": "f8313dc953134adfacc00bdb6e5ef06a.fbx"
    },
    {
      "children": [
        3
      ],
      "name": "RootNode"
    },
    {
      "children": [
        4
      ],
      "matrix": [
        1.0,
        0.0,
        0.0,
        0.0,
        0.0,
        0.9999999999999867,
        1.6292068494294582e-07,
        0.0,
        0.0,
        -1.6292068494294582e-07,
        0.9999999999999867,
        0.0,
        0.0,
        0.0,
        0.0,
        1.0
      ],
      "name": "BearHead"
    },
    {
      "mesh": 0,
      "name": "BearHead_BearHead_0"
    }
  ],
  "samplers": [
    {
      "magFilter": 9729,
      "minFilter": 9987,
      "wrapS": 10497,
      "wrapT": 10497
    }
  ],
  "scene": 0,
  "scenes": [
    {
      "name": "Sketchfab_Scene",
      "nodes": [
        0
      ]
    }
  ],
  "textures": [
    {
      "sampler": 0,
      "source": 0
    },
    {
      "sampler": 0,
      "source": 1
    }
  ]
}
