{
  "accessors": [
    {
      "bufferView": 2,
      "componentType": 5126,
      "count": 1285,
      "max": [
        35.73887634277344,
        83.32102966308594,
        39.56751251220703
      ],
      "min": [
        -35.73887634277344,
        -9.996552467346191,
        -34.626808166503906
      ],
      "type": "VEC3"
    },
    {
      "bufferView": 2,
      "byteOffset": 15420,
      "componentType": 5126,
      "count": 1285,
      "max": [
        0.9998300075531006,
        0.9999945759773254,
        0.9991857409477234
      ],
      "min": [
        -0.9998299479484558,
        -0.999198853969574,
        -0.998796820640564
      ],
      "type": "VEC3"
    },
    {
      "bufferView": 3,
      "componentType": 5126,
      "count": 1285,
      "max": [
        0.9999998807907104,
        0.9986652731895447,
        0.9979407787322998,
        1.0
      ],
      "min": [
        -0.9999991059303284,
        -0.9851033687591553,
        -0.9998189210891724,
        1.0
      ],
      "type": "VEC4"
    },
    {
      "bufferView": 1,
      "componentType": 5126,
      "count": 1285,
      "max": [
        0.982708752155304,
        0.987387478351593
      ],
      "min": [
        0.0061688292771577835,
        0.016460543498396873
      ],
      "type": "VEC2"
    },
    {
      "bufferView": 1,
      "byteOffset": 10280,
      "componentType": 5126,
      "count": 1285,
      "max": [
        0.982708752155304,
        0.987387478351593
      ],
      "min": [
        0.0061688292771577835,
        0.016460543498396873
      ],
      "type": "VEC2"
    },
    {
      "bufferView": 1,
      "byteOffset": 20560,
      "componentType": 5126,
      "count": 1285,
      "max": [
        0.982708752155304,
        0.987387478351593
      ],
      "min": [
        0.0061688292771577835,
        0.016460543498396873
      ],
      "type": "VEC2"
    },
    {
      "bufferView": 1,
      "byteOffset": 30840,
      "componentType": 5126,
      "count": 1285,
      "max": [
        0.982708752155304,
        0.987387478351593
      ],
      "min": [
        0.0061688292771577835,
        0.016460543498396873
      ],
      "type": "VEC2"
    },
    {
      "bufferView": 1,
      "byteOffset": 41120,
      "componentType": 5126,
      "count": 1285,
      "max": [
        0.982708752155304,
        0.987387478351593
      ],
      "min": [
        0.0061688292771577835,
        0.016460543498396873
      ],
      "type": "VEC2"
    },
    {
      "bufferView": 1,
      "byteOffset": 51400,
      "componentType": 5126,
      "count": 1285,
      "max": [
        0.982708752155304,
        0.987387478351593
      ],
      "min": [
        0.0061688292771577835,
        0.016460543498396873
      ],
      "type": "VEC2"
    },
    {
      "bufferView": 1,
      "byteOffset": 61680,
      "componentType": 5126,
      "count": 1285,
      "max": [
        0.982708752155304,
        0.987387478351593
      ],
      "min": [
        0.0061688292771577835,
        0.016460543498396873
      ],
      "type": "VEC2"
    },
    {
      "bufferView": 1,
      "byteOffset": 71960,
      "componentType": 5126,
      "count": 1285,
      "max": [
        0.982708752155304,
        0.987387478351593
      ],
      "min": [
        0.0061688292771577835,
        0.016460543498396873
      ],
      "type": "VEC2"
    },
    {
      "bufferView": 1,
      "byteOffset": 82240,
      "componentType": 5126,
      "count": 1285,
      "max": [
        0.982708752155304,
        0.987387478351593
      ],
      "min": [
        0.0061688292771577835,
        0.016460543498396873
      ],
      "type": "VEC2"
    },
    {
      "bufferView": 1,
      "byteOffset": 92520,
      "componentType": 5126,
      "count": 1285,
      "max": [
        0.982708752155304,
        0.987387478351593
      ],
      "min": [
        0.0061688292771577835,
        0.016460543498396873
      ],
      "type": "VEC2"
    },
    {
      "bufferView": 0,
      "componentType": 5125,
      "count": 6312,
      "type": "SCALAR"
    }
  ],
  "asset": {
    "extras": {
      "author": "BaluCG (https://sketchfab.com/BaluCG)",
      "license": "SKETCHFAB Standard (https://sketchfab.com/licenses)",
      "source": "https://sketchfab.com/3d-models/prop152-reindeer-head-f59c167ff46844238b9f3d841750332d",
      "title": "Prop152 Reindeer Head"
    },
    "generator": "Sketchfab-13.80.0",
    "version": "2.0"
  },
  "bufferViews": [
    {
      "buffer": 0,
      "byteLength": 25248,
      "name": "floatBufferViews",
      "target": 34963
    },
    {
      "buffer": 0,
      "byteLength": 102800,
      "byteOffset": 25248,
      "byteStride": 8,
      "name": "floatBufferViews",
      "target": 34962
    },
    {
      "buffer": 0,
      "byteLength": 30840,
      "byteOffset": 128048,
      "byteStride": 12,
      "name": "floatBufferViews",
      "target": 34962
    },
    {
      "buffer": 0,
      "byteLength": 20560,
      "byteOffset": 158888,
      "byteStride": 16,
      "name": "floatBufferViews",
      "target": 34962
    }
  ],
  "buffers": [
    {
      "byteLength": 179448,
      "uri": "scene.bin"
    }
  ],
  "images": [
    {
      "uri": "textures/ReindeerHead_baseColor_purple.png"
    },
    {
      "uri": "textures/ReindeerHead_metallicRoughness.png"
    },
    {
      "uri": "textures/ReindeerHead_normal.png"
    }
  ],
  "materials": [
    {
      "doubleSided": true,
      "name": "ReindeerHead",
      "normalTexture": {
        "index": 2
      },
      "pbrMetallicRoughness": {
        "baseColorTexture": {
          "index": 0
        },
        "metallicFactor": 0.0,
        "metallicRoughnessTexture": {
          "index": 1
        }
      }
    }
  ],
  "meshes": [
    {
      "name": "ReindeerHead_ReindeerHead_0",
      "primitives": [
        {
          "attributes": {
            "NORMAL": 1,
            "POSITION": 0,
            "TANGENT": 2,
            "TEXCOORD_0": 3,
            "TEXCOORD_1": 4,
            "TEXCOORD_2": 5,
            "TEXCOORD_3": 6,
            "TEXCOORD_4": 7,
            "TEXCOORD_5": 8,
            "TEXCOORD_6": 9,
            "TEXCOORD_7": 10,
            "TEXCOORD_8": 11,
            "TEXCOORD_9": 12
          },
          "indices": 13,
          "material": 0,
          "mode": 4
        }
      ]
    }
  ],
  "nodes": [
    {
      "children": [
        1
      ],
      "matrix": [
        1.0,
        0.0,
        0.0,
        0.0,
        0.0,
        2.220446049250313e-16,
        -1.0,
        0.0,
        0.0,
        1.0,
        2.220446049250313e-16,
        0.0,
        0.0,
        0.0,
        0.0,
        1.0
      ],
      "name": "Sketchfab_model"
    },
    {
      "children": [
        2
      ],
      "matrix": [
        0.009999999776482582,
        0.0,
        0.0,
        0.0,
        0.0,
        0.0,
        0.009999999776482582,
        0.0,
        0.0,
        -0.009999999776482582,
        0.0,
        0.0,
        0.0,
        0.0,
        0.0,
        1.0
      ],
      "name": "6fd719e8e99e4dd89760be4de360f74c.fbx"
    },
    {
      "children": [
        3
      ],
      "name": "RootNode"
    },
    {
      "children": [
        4
      ],
      "matrix": [
        1.0,
        0.0,
        0.0,
        0.0,
        0.0,
        0.9999999999999867,
        1.6292068494294582e-07,
        0.0,
        0.0,
        -1.6292068494294582e-07,
        0.9999999999999867,
        0.0,
        0.0,
        0.0,
        0.0,
        1.0
      ],
      "name": "ReindeerHead"
    },
    {
      "mesh": 0,
      "name": "ReindeerHead_ReindeerHead_0"
    }
  ],
  "samplers": [
    {
      "magFilter": 9729,
      "minFilter": 9987,
      "wrapS": 10497,
      "wrapT": 10497
    }
  ],
  "scene": 0,
  "scenes": [
    {
      "name": "Sketchfab_Scene",
      "nodes": [
        0
      ]
    }
  ],
  "textures": [
    {
      "sampler": 0,
      "source": 0
    },
    {
      "sampler": 0,
      "source": 1
    },
    {
      "sampler": 0,
      "source": 2
    }
  ]
}
