{
  "accessors": [
    {
      "bufferView": 2,
      "componentType": 5126,
      "count": 1895,
      "max": [
        42.573516845703125,
        63.11671447753906,
        33.52000045776367
      ],
      "min": [
        -42.573516845703125,
        -9.566998481750488,
        -35.62735366821289
      ],
      "type": "VEC3"
    },
    {
      "bufferView": 2,
      "byteOffset": 22740,
      "componentType": 5126,
      "count": 1895,
      "max": [
        0.9998617172241211,
        0.9999858140945435,
        0.9999279975891113
      ],
      "min": [
        -0.9998617172241211,
        -0.9999949932098389,
        -0.9999693036079407
      ],
      "type": "VEC3"
    },
    {
      "bufferView": 1,
      "componentType": 5126,
      "count": 1895,
      "max": [
        0.9943184852600098,
        0.9935504198074341
      ],
      "min": [
        0.3609597682952881,
        0.006673404946923256
      ],
      "type": "VEC2"
    },
    {
      "bufferView": 1,
      "byteOffset": 15160,
      "componentType": 5126,
      "count": 1895,
      "max": [
        0.9943184852600098,
        0.9935504198074341
      ],
      "min": [
        0.3609597682952881,
        0.006673404946923256
      ],
      "type": "VEC2"
    },
    {
      "bufferView": 1,
      "byteOffset": 30320,
      "componentType": 5126,
      "count": 1895,
      "max": [
        0.9943184852600098,
        0.9935504198074341
      ],
      "min": [
        0.3609597682952881,
        0.006673404946923256
      ],
      "type": "VEC2"
    },
    {
      "bufferView": 1,
      "byteOffset": 45480,
      "componentType": 5126,
      "count": 1895,
      "max": [
        0.9943184852600098,
        0.9935504198074341
      ],
      "min": [
        0.3609597682952881,
        0.006673404946923256
      ],
      "type": "VEC2"
    },
    {
      "bufferView": 1,
      "byteOffset": 60640,
      "componentType": 5126,
      "count": 1895,
      "max": [
        0.9943184852600098,
        0.9935504198074341
      ],
      "min": [
        0.3609597682952881,
        0.006673404946923256
      ],
      "type": "VEC2"
    },
    {
      "bufferView": 1,
      "byteOffset": 75800,
      "componentType": 5126,
      "count": 1895,
      "max": [
        0.9943184852600098,
        0.9935504198074341
      ],
      "min": [
        0.3609597682952881,
        0.006673404946923256
      ],
      "type": "VEC2"
    },
    {
      "bufferView": 1,
      "byteOffset": 90960,
      "componentType": 5126,
      "count": 1895,
      "max": [
        0.9943184852600098,
        0.9935504198074341
      ],
      "min": [
        0.3609597682952881,
        0.006673404946923256
      ],
      "type": "VEC2"
    },
    {
      "bufferView": 1,
      "byteOffset": 106120,
      "componentType": 5126,
      "count": 1895,
      "max": [
        0.9943184852600098,
        0.9935504198074341
      ],
      "min": [
        0.3609597682952881,
        0.006673404946923256
      ],
      "type": "VEC2"
    },
    {
      "bufferView": 1,
      "byteOffset": 121280,
      "componentType": 5126,
      "count": 1895,
      "max": [
        0.9943184852600098,
        0.9935504198074341
      ],
      "min": [
        0.3609597682952881,
        0.006673404946923256
      ],
      "type": "VEC2"
    },
    {
      "bufferView": 1,
      "byteOffset": 136440,
      "componentType": 5126,
      "count": 1895,
      "max": [
        0.9943184852600098,
        0.9935504198074341
      ],
      "min": [
        0.3609597682952881,
        0.006673404946923256
      ],
      "type": "VEC2"
    },
    {
      "bufferView": 0,
      "componentType": 5125,
      "count": 9264,
      "type": "SCALAR"
    }
  ],
  "asset": {
    "extras": {
      "author": "BaluCG (https://sketchfab.com/BaluCG)",
      "license": "SKETCHFAB Standard (https://sketchfab.com/licenses)",
      "source": "https://sketchfab.com/3d-models/prop128-cat-head-e8d3427a65be4590893c34b28a46a297",
      "title": "Prop128 Cat Head"
    },
    "generator": "Sketchfab-13.78.0",
    "version": "2.0"
  },
  "bufferViews": [
    {
      "buffer": 0,
      "byteLength": 37056,
      "name": "floatBufferViews",
      "target": 34963
    },
    {
      "buffer": 0,
      "byteLength": 151600,
      "byteOffset": 37056,
      "byteStride": 8,
      "name": "floatBufferViews",
      "target": 34962
    },
    {
      "buffer": 0,
      "byteLength": 45480,
      "byteOffset": 188656,
      "byteStride": 12,
      "name": "floatBufferViews",
      "target": 34962
    }
  ],
  "buffers": [
    {
      "byteLength": 234136,
      "uri": "scene.bin"
    }
  ],
  "images": [
    {
      "uri": "textures/CatHead_baseColor_yellow.png"
    },
    {
      "uri": "textures/CatHead_metallicRoughness.png"
    }
  ],
  "materials": [
    {
      "doubleSided": true,
      "name": "CatHead",
      "pbrMetallicRoughness": {
        "baseColorTexture": {
          "index": 0
        },
        "metallicFactor": 0.0,
        "metallicRoughnessTexture": {
          "index": 1
        },
        "roughnessFactor": 0.845655107701573
      }
    }
  ],
  "meshes": [
    {
      "name": "CatHead_CatHead_0",
      "primitives": [
        {
          "attributes": {
            "NORMAL": 1,
            "POSITION": 0,
            "TEXCOORD_0": 2,
            "TEXCOORD_1": 3,
            "TEXCOORD_2": 4,
            "TEXCOORD_3": 5,
            "TEXCOORD_4": 6,
            "TEXCOORD_5": 7,
            "TEXCOORD_6": 8,
            "TEXCOORD_7": 9,
            "TEXCOORD_8": 10,
            "TEXCOORD_9": 11
          },
          "indices": 12,
          "material": 0,
          "mode": 4
        }
      ]
    }
  ],
  "nodes": [
    {
      "children": [
        1
      ],
      "matrix": [
        1.0,
        0.0,
        0.0,
        0.0,
        0.0,
        2.220446049250313e-16,
        -1.0,
        0.0,
        0.0,
        1.0,
        2.220446049250313e-16,
        0.0,
        0.0,
        0.0,
        0.0,
        1.0
      ],
      "name": "Sketchfab_model"
    },
    {
      "children": [
        2
      ],
      "matrix": [
        0.009999999776482582,
        0.0,
        0.0,
        0.0,
        0.0,
        0.0,
        0.009999999776482582,
        0.0,
        0.0,
        -0.009999999776482582,
        0.0,
        0.0,
        0.0,
        0.0,
        0.0,
        1.0
      ],
      "name": "43c29ec4b6b14696bab33f4a217d2518.fbx"
    },
    {
      "children": [
        3
      ],
      "name": "RootNode"
    },
    {
      "children": [
        4
      ],
      "matrix": [
        1.0,
        0.0,
        0.0,
        0.0,
        0.0,
        0.9999999999999867,
        1.6292068494294582e-07,
        0.0,
        0.0,
        -1.6292068494294582e-07,
        0.9999999999999867,
        0.0,
        0.0,
        0.0,
        0.0,
        1.0
      ],
      "name": "CatHead"
    },
    {
      "mesh": 0,
      "name": "CatHead_CatHead_0"
    }
  ],
  "samplers": [
    {
      "magFilter": 9729,
      "minFilter": 9987,
      "wrapS": 10497,
      "wrapT": 10497
    }
  ],
  "scene": 0,
  "scenes": [
    {
      "name": "Sketchfab_Scene",
      "nodes": [
        0
      ]
    }
  ],
  "textures": [
    {
      "sampler": 0,
      "source": 0
    },
    {
      "sampler": 0,
      "source": 1
    }
  ]
}
