{
  "accessors": [
    {
      "bufferView": 2,
      "componentType": 5126,
      "count": 5445,
      "max": [
        37.60112380981445,
        35.17735290527344,
        65.09135437011719
      ],
      "min": [
        -37.60112380981445,
        -35.59206008911133,
        -7.778919219970703
      ],
      "type": "VEC3"
    },
    {
      "bufferView": 2,
      "byteOffset": 65340,
      "componentType": 5126,
      "count": 5445,
      "max": [
        0.9996787905693054,
        0.9999952912330627,
        0.9996703267097473
      ],
      "min": [
        -0.9996787905693054,
        -0.9999478459358215,
        -1.0
      ],
      "type": "VEC3"
    },
    {
      "bufferView": 3,
      "componentType": 5126,
      "count": 5445,
      "max": [
        0.9999808669090271,
        0.9997506141662598,
        0.999958336353302,
        1.0
      ],
      "min": [
        -0.9999987483024597,
        -0.9997406601905823,
        -0.9984195828437805,
        1.0
      ],
      "type": "VEC4"
    },
    {
      "bufferView": 1,
      "componentType": 5126,
      "count": 5445,
      "max": [
        0.9907607436180115,
        0.9681956768035889
      ],
      "min": [
        0.01633509248495102,
        0.025099407881498337
      ],
      "type": "VEC2"
    },
    {
      "bufferView": 0,
      "componentType": 5125,
      "count": 30360,
      "type": "SCALAR"
    }
  ],
  "asset": {
    "extras": {
      "author": "BaluCG (https://sketchfab.com/BaluCG)",
      "license": "SKETCHFAB Standard (https://sketchfab.com/licenses)",
      "source": "https://sketchfab.com/3d-models/prop189-shiba-dog-head-e0301925f64749119ce8fd9580f35032",
      "title": "Prop189 Shiba Dog Head"
    },
    "generator": "Sketchfab-14.32.1",
    "version": "2.0"
  },
  "bufferViews": [
    {
      "buffer": 0,
      "byteLength": 121440,
      "name": "floatBufferViews",
      "target": 34963
    },
    {
      "buffer": 0,
      "byteLength": 43560,
      "byteOffset": 121440,
      "byteStride": 8,
      "name": "floatBufferViews",
      "target": 34962
    },
    {
      "buffer": 0,
      "byteLength": 130680,
      "byteOffset": 165000,
      "byteStride": 12,
      "name": "floatBufferViews",
      "target": 34962
    },
    {
      "buffer": 0,
      "byteLength": 87120,
      "byteOffset": 295680,
      "byteStride": 16,
      "name": "floatBufferViews",
      "target": 34962
    }
  ],
  "buffers": [
    {
      "byteLength": 382800,
      "uri": "scene.bin"
    }
  ],
  "images": [
    {
      "uri": "textures/ShibaDogHead_baseColor_blue.png"
    },
    {
      "uri": "textures/ShibaDogHead_metallicRoughness.png"
    },
    {
      "uri": "textures/ShibaDogHead_normal.png"
    }
  ],
  "materials": [
    {
      "doubleSided": true,
      "name": "ShibaDogHead",
      "normalTexture": {
        "index": 2
      },
      "pbrMetallicRoughness": {
        "baseColorTexture": {
          "index": 0
        },
        "metallicFactor": 0.0,
        "metallicRoughnessTexture": {
          "index": 1
        }
      }
    }
  ],
  "meshes": [
    {
      "name": "ShibaDogHead_ShibaDogHead_0",
      "primitives": [
        {
          "attributes": {
            "NORMAL": 1,
            "POSITION": 0,
            "TANGENT": 2,
            "TEXCOORD_0": 3
          },
          "indices": 4,
          "material": 0,
          "mode": 4
        }
      ]
    }
  ],
  "nodes": [
    {
      "children": [
        1
      ],
      "matrix": [
        1.0,
        0.0,
        0.0,
        0.0,
        0.0,
        2.220446049250313e-16,
        -1.0,
        0.0,
        0.0,
        1.0,
        2.220446049250313e-16,
        0.0,
        0.0,
        0.0,
        0.0,
        1.0
      ],
      "name": "Sketchfab_model"
    },
    {
      "children": [
        2
      ],
      "matrix": [
        0.009999999776482582,
        0.0,
        0.0,
        0.0,
        0.0,
        0.0,
        0.009999999776482582,
        0.0,
        0.0,
        -0.009999999776482582,
        0.0,
        0.0,
        0.0,
        0.0,
        0.0,
        1.0
      ],
      "name": "dfb733624597405e9cc4119943c0222a.fbx"
    },
    {
      "children": [
        3
      ],
      "name": "RootNode"
    },
    {
      "children": [
        4
      ],
      "matrix": [
        1.0,
        0.0,
        0.0,
        0.0,
        0.0,
        2.220446049250313e-16,
        -1.0,
        0.0,
        0.0,
        1.0,
        2.220446049250313e-16,
        0.0,
        0.0,
        0.0,
        0.0,
        1.0
      ],
      "name": "ShibaDogHead"
    },
    {
      "mesh": 0,
      "name": "ShibaDogHead_ShibaDogHead_0"
    }
  ],
  "samplers": [
    {
      "magFilter": 9729,
      "minFilter": 9987,
      "wrapS": 10497,
      "wrapT": 10497
    }
  ],
  "scene": 0,
  "scenes": [
    {
      "name": "Sketchfab_Scene",
      "nodes": [
        0
      ]
    }
  ],
  "textures": [
    {
      "sampler": 0,
      "source": 0
    },
    {
      "sampler": 0,
      "source": 1
    },
    {
      "sampler": 0,
      "source": 2
    }
  ]
}
