{
  "accessors": [
    {
      "bufferView": 2,
      "componentType": 5126,
      "count": 2408,
      "max": [
        36.21369552612305,
        53.90909957885742,
        34.74067687988281
      ],
      "min": [
        -36.21368408203125,
        -8.668595314025879,
        -34.92652130126953
      ],
      "type": "VEC3"
    },
    {
      "bufferView": 2,
      "byteOffset": 28896,
      "componentType": 5126,
      "count": 2408,
      "max": [
        0.9996742606163025,
        0.9999957084655762,
        0.9999896883964539
      ],
      "min": [
        -0.9996742606163025,
        -0.9999997019767761,
        -0.9997206330299377
      ],
      "type": "VEC3"
    },
    {
      "bufferView": 3,
      "componentType": 5126,
      "count": 2408,
      "max": [
        0.9999992847442627,
        0.9571925401687622,
        0.9997981190681458,
        1.0
      ],
      "min": [
        -1.0,
        -0.9547540545463562,
        -0.9998762607574463,
        1.0
      ],
      "type": "VEC4"
    },
    {
      "bufferView": 1,
      "componentType": 5126,
      "count": 2408,
      "max": [
        0.9775999188423157,
        0.9737389087677002
      ],
      "min": [
        0.025342881679534912,
        0.022978525608778
      ],
      "type": "VEC2"
    },
    {
      "bufferView": 1,
      "byteOffset": 19264,
      "componentType": 5126,
      "count": 2408,
      "max": [
        0.9775999188423157,
        0.9737389087677002
      ],
      "min": [
        0.025342881679534912,
        0.022978525608778
      ],
      "type": "VEC2"
    },
    {
      "bufferView": 1,
      "byteOffset": 38528,
      "componentType": 5126,
      "count": 2408,
      "max": [
        0.9775999188423157,
        0.9737389087677002
      ],
      "min": [
        0.025342881679534912,
        0.022978525608778
      ],
      "type": "VEC2"
    },
    {
      "bufferView": 1,
      "byteOffset": 57792,
      "componentType": 5126,
      "count": 2408,
      "max": [
        0.9775999188423157,
        0.9737389087677002
      ],
      "min": [
        0.025342881679534912,
        0.022978525608778
      ],
      "type": "VEC2"
    },
    {
      "bufferView": 1,
      "byteOffset": 77056,
      "componentType": 5126,
      "count": 2408,
      "max": [
        0.9775999188423157,
        0.9737389087677002
      ],
      "min": [
        0.025342881679534912,
        0.022978525608778
      ],
      "type": "VEC2"
    },
    {
      "bufferView": 1,
      "byteOffset": 96320,
      "componentType": 5126,
      "count": 2408,
      "max": [
        0.9775999188423157,
        0.9737389087677002
      ],
      "min": [
        0.025342881679534912,
        0.022978525608778
      ],
      "type": "VEC2"
    },
    {
      "bufferView": 1,
      "byteOffset": 115584,
      "componentType": 5126,
      "count": 2408,
      "max": [
        0.9775999188423157,
        0.9737389087677002
      ],
      "min": [
        0.025342881679534912,
        0.022978525608778
      ],
      "type": "VEC2"
    },
    {
      "bufferView": 1,
      "byteOffset": 134848,
      "componentType": 5126,
      "count": 2408,
      "max": [
        0.9775999188423157,
        0.9737389087677002
      ],
      "min": [
        0.025342881679534912,
        0.022978525608778
      ],
      "type": "VEC2"
    },
    {
      "bufferView": 1,
      "byteOffset": 154112,
      "componentType": 5126,
      "count": 2408,
      "max": [
        0.9775999188423157,
        0.9737389087677002
      ],
      "min": [
        0.025342881679534912,
        0.022978525608778
      ],
      "type": "VEC2"
    },
    {
      "bufferView": 1,
      "byteOffset": 173376,
      "componentType": 5126,
      "count": 2408,
      "max": [
        0.9775999188423157,
        0.9737389087677002
      ],
      "min": [
        0.025342881679534912,
        0.022978525608778
      ],
      "type": "VEC2"
    },
    {
      "bufferView": 0,
      "componentType": 5125,
      "count": 13632,
      "type": "SCALAR"
    }
  ],
  "asset": {
    "extras": {
      "author": "BaluCG (https://sketchfab.com/BaluCG)",
      "license": "SKETCHFAB Standard (https://sketchfab.com/licenses)",
      "source": "https://sketchfab.com/3d-models/prop187-penguin-head-47c76429434547e1b4f28ee6fce79ab8",
      "title": "Prop187 Penguin Head"
    },
    "generator": "Sketchfab-14.25.0",
    "version": "2.0"
  },
  "bufferViews": [
    {
      "buffer": 0,
      "byteLength": 54528,
      "name": "floatBufferViews",
      "target": 34963
    },
    {
      "buffer": 0,
      "byteLength": 192640,
      "byteOffset": 54528,
      "byteStride": 8,
      "name": "floatBufferViews",
      "target": 34962
    },
    {
      "buffer": 0,
      "byteLength": 57792,
      "byteOffset": 247168,
      "byteStride": 12,
      "name": "floatBufferViews",
      "target": 34962
    },
    {
      "buffer": 0,
      "byteLength": 38528,
      "byteOffset": 304960,
      "byteStride": 16,
      "name": "floatBufferViews",
      "target": 34962
    }
  ],
  "buffers": [
    {
      "byteLength": 343488,
      "uri": "scene.bin"
    }
  ],
  "images": [
    {
      "uri": "textures/PenguinHead_baseColor.png"
    },
    {
      "uri": "textures/PenguinHead_metallicRoughness.png"
    },
    {
      "uri": "textures/PenguinHead_normal.png"
    }
  ],
  "materials": [
    {
      "doubleSided": true,
      "name": "PenguinHead",
      "normalTexture": {
        "index": 2
      },
      "pbrMetallicRoughness": {
        "baseColorTexture": {
          "index": 0
        },
        "metallicFactor": 0.0,
        "metallicRoughnessTexture": {
          "index": 1
        }
      }
    }
  ],
  "meshes": [
    {
      "name": "PenguinHead_PenguinHead_0",
      "primitives": [
        {
          "attributes": {
            "NORMAL": 1,
            "POSITION": 0,
            "TANGENT": 2,
            "TEXCOORD_0": 3,
            "TEXCOORD_1": 4,
            "TEXCOORD_2": 5,
            "TEXCOORD_3": 6,
            "TEXCOORD_4": 7,
            "TEXCOORD_5": 8,
            "TEXCOORD_6": 9,
            "TEXCOORD_7": 10,
            "TEXCOORD_8": 11,
            "TEXCOORD_9": 12
          },
          "indices": 13,
          "material": 0,
          "mode": 4
        }
      ]
    }
  ],
  "nodes": [
    {
      "children": [
        1
      ],
      "matrix": [
        1.0,
        0.0,
        0.0,
        0.0,
        0.0,
        2.220446049250313e-16,
        -1.0,
        0.0,
        0.0,
        1.0,
        2.220446049250313e-16,
        0.0,
        0.0,
        0.0,
        0.0,
        1.0
      ],
      "name": "Sketchfab_model"
    },
    {
      "children": [
        2
      ],
      "matrix": [
        0.009999999776482582,
        0.0,
        0.0,
        0.0,
        0.0,
        0.0,
        0.009999999776482582,
        0.0,
        0.0,
        -0.009999999776482582,
        0.0,
        0.0,
        0.0,
        0.0,
        0.0,
        1.0
      ],
      "name": "a45085830ea24949beb1a838038dc0fc.fbx"
    },
    {
      "children": [
        3
      ],
      "name": "RootNode"
    },
    {
      "children": [
        4
      ],
      "matrix": [
        1.0,
        0.0,
        0.0,
        0.0,
        0.0,
        0.9999999999999867,
        1.6292068494294582e-07,
        0.0,
        0.0,
        -1.6292068494294582e-07,
        0.9999999999999867,
        0.0,
        0.0,
        0.0,
        0.0,
        1.0
      ],
      "name": "PenguinHead"
    },
    {
      "mesh": 0,
      "name": "PenguinHead_PenguinHead_0"
    }
  ],
  "samplers": [
    {
      "magFilter": 9729,
      "minFilter": 9987,
      "wrapS": 10497,
      "wrapT": 10497
    }
  ],
  "scene": 0,
  "scenes": [
    {
      "name": "Sketchfab_Scene",
      "nodes": [
        0
      ]
    }
  ],
  "textures": [
    {
      "sampler": 0,
      "source": 0
    },
    {
      "sampler": 0,
      "source": 1
    },
    {
      "sampler": 0,
      "source": 2
    }
  ]
}
