{
  "accessors": [
    {
      "bufferView": 2,
      "componentType": 5126,
      "count": 1437,
      "max": [
        39.278167724609375,
        90.31910705566406,
        33.52000045776367
      ],
      "min": [
        -39.278167724609375,
        -8.618992805480957,
        -35.23454284667969
      ],
      "type": "VEC3"
    },
    {
      "bufferView": 2,
      "byteOffset": 17244,
      "componentType": 5126,
      "count": 1437,
      "max": [
        0.9983090162277222,
        0.999912440776825,
        0.9999279975891113
      ],
      "min": [
        -0.9983090162277222,
        -0.9998953938484192,
        -0.9997966885566711
      ],
      "type": "VEC3"
    },
    {
      "bufferView": 1,
      "componentType": 5126,
      "count": 1437,
      "max": [
        0.9811863899230957,
        0.9591804146766663
      ],
      "min": [
        0.018813621252775192,
        0.01839166134595871
      ],
      "type": "VEC2"
    },
    {
      "bufferView": 1,
      "byteOffset": 11496,
      "componentType": 5126,
      "count": 1437,
      "max": [
        0.9811863899230957,
        0.9591804146766663
      ],
      "min": [
        0.018813621252775192,
        0.01839166134595871
      ],
      "type": "VEC2"
    },
    {
      "bufferView": 1,
      "byteOffset": 22992,
      "componentType": 5126,
      "count": 1437,
      "max": [
        0.9811863899230957,
        0.9591804146766663
      ],
      "min": [
        0.018813621252775192,
        0.01839166134595871
      ],
      "type": "VEC2"
    },
    {
      "bufferView": 1,
      "byteOffset": 34488,
      "componentType": 5126,
      "count": 1437,
      "max": [
        0.9811863899230957,
        0.9591804146766663
      ],
      "min": [
        0.018813621252775192,
        0.01839166134595871
      ],
      "type": "VEC2"
    },
    {
      "bufferView": 1,
      "byteOffset": 45984,
      "componentType": 5126,
      "count": 1437,
      "max": [
        0.9811863899230957,
        0.9591804146766663
      ],
      "min": [
        0.018813621252775192,
        0.01839166134595871
      ],
      "type": "VEC2"
    },
    {
      "bufferView": 1,
      "byteOffset": 57480,
      "componentType": 5126,
      "count": 1437,
      "max": [
        0.9811863899230957,
        0.9591804146766663
      ],
      "min": [
        0.018813621252775192,
        0.01839166134595871
      ],
      "type": "VEC2"
    },
    {
      "bufferView": 1,
      "byteOffset": 68976,
      "componentType": 5126,
      "count": 1437,
      "max": [
        0.9811863899230957,
        0.9591804146766663
      ],
      "min": [
        0.018813621252775192,
        0.01839166134595871
      ],
      "type": "VEC2"
    },
    {
      "bufferView": 1,
      "byteOffset": 80472,
      "componentType": 5126,
      "count": 1437,
      "max": [
        0.9811863899230957,
        0.9591804146766663
      ],
      "min": [
        0.018813621252775192,
        0.01839166134595871
      ],
      "type": "VEC2"
    },
    {
      "bufferView": 1,
      "byteOffset": 91968,
      "componentType": 5126,
      "count": 1437,
      "max": [
        0.9811863899230957,
        0.9591804146766663
      ],
      "min": [
        0.018813621252775192,
        0.01839166134595871
      ],
      "type": "VEC2"
    },
    {
      "bufferView": 1,
      "byteOffset": 103464,
      "componentType": 5126,
      "count": 1437,
      "max": [
        0.9811863899230957,
        0.9591804146766663
      ],
      "min": [
        0.018813621252775192,
        0.01839166134595871
      ],
      "type": "VEC2"
    },
    {
      "bufferView": 0,
      "componentType": 5125,
      "count": 7296,
      "type": "SCALAR"
    }
  ],
  "asset": {
    "extras": {
      "author": "BaluCG (https://sketchfab.com/BaluCG)",
      "license": "SKETCHFAB Standard (https://sketchfab.com/licenses)",
      "source": "https://sketchfab.com/3d-models/prop149-rabbit-head-14eb3d6a41104ddf853223d2ee4deab1",
      "title": "Prop149 Rabbit Head"
    },
    "generator": "Sketchfab-13.80.0",
    "version": "2.0"
  },
  "bufferViews": [
    {
      "buffer": 0,
      "byteLength": 29184,
      "name": "floatBufferViews",
      "target": 34963
    },
    {
      "buffer": 0,
      "byteLength": 114960,
      "byteOffset": 29184,
      "byteStride": 8,
      "name": "floatBufferViews",
      "target": 34962
    },
    {
      "buffer": 0,
      "byteLength": 34488,
      "byteOffset": 144144,
      "byteStride": 12,
      "name": "floatBufferViews",
      "target": 34962
    }
  ],
  "buffers": [
    {
      "byteLength": 178632,
      "uri": "ene.bin"
    }
  ],
  "images": [
    {
      "uri": "textures/RabbitHead_baseColor_green.png"
    },
    {
      "uri": "textures/RabbitHead_metallicRoughness.png"
    }
  ],
  "materials": [
    {
      "doubleSided": true,
      "name": "RabbitHead",
      "pbrMetallicRoughness": {
        "baseColorTexture": {
          "index": 0
        },
        "metallicFactor": 0.0,
        "metallicRoughnessTexture": {
          "index": 1
        }
      }
    }
  ],
  "meshes": [
    {
      "name": "RabbitHead_RabbitHead_0",
      "primitives": [
        {
          "attributes": {
            "NORMAL": 1,
            "POSITION": 0,
            "TEXCOORD_0": 2,
            "TEXCOORD_1": 3,
            "TEXCOORD_2": 4,
            "TEXCOORD_3": 5,
            "TEXCOORD_4": 6,
            "TEXCOORD_5": 7,
            "TEXCOORD_6": 8,
            "TEXCOORD_7": 9,
            "TEXCOORD_8": 10,
            "TEXCOORD_9": 11
          },
          "indices": 12,
          "material": 0,
          "mode": 4
        }
      ]
    }
  ],
  "nodes": [
    {
      "children": [
        1
      ],
      "matrix": [
        1.0,
        0.0,
        0.0,
        0.0,
        0.0,
        2.220446049250313e-16,
        -1.0,
        0.0,
        0.0,
        1.0,
        2.220446049250313e-16,
        0.0,
        0.0,
        0.0,
        0.0,
        1.0
      ],
      "name": "Sketchfab_model"
    },
    {
      "children": [
        2
      ],
      "matrix": [
        0.009999999776482582,
        0.0,
        0.0,
        0.0,
        0.0,
        0.0,
        0.009999999776482582,
        0.0,
        0.0,
        -0.009999999776482582,
        0.0,
        0.0,
        0.0,
        0.0,
        0.0,
        1.0
      ],
      "name": "50902bf1550b45a198bee85dded7efa7.fbx"
    },
    {
      "children": [
        3
      ],
      "name": "RootNode"
    },
    {
      "children": [
        4
      ],
      "matrix": [
        1.0,
        0.0,
        0.0,
        0.0,
        0.0,
        0.9999999999999867,
        1.6292068494294582e-07,
        0.0,
        0.0,
        -1.6292068494294582e-07,
        0.9999999999999867,
        0.0,
        0.0,
        0.0,
        0.0,
        1.0
      ],
      "name": "RabbitHead"
    },
    {
      "mesh": 0,
      "name": "RabbitHead_RabbitHead_0"
    }
  ],
  "samplers": [
    {
      "magFilter": 9729,
      "minFilter": 9987,
      "wrapS": 10497,
      "wrapT": 10497
    }
  ],
  "scene": 0,
  "scenes": [
    {
      "name": "Sketchfab_Scene",
      "nodes": [
        0
      ]
    }
  ],
  "textures": [
    {
      "sampler": 0,
      "source": 0
    },
    {
      "sampler": 0,
      "source": 1
    }
  ]
}
